<?xml version="1.0" ?><svg viewBox="0 0 24 24" xmlns="http://www.w3.org/2000/svg"><defs><style>.cls-1{fill:none;}.cls-2{fill:#fff;}.cls-3{fill:#d9d9d9;}.cls-4{fill:#008dff;}.cls-5{fill:#0066e0;}</style></defs><title/><g data-name="Layer 2" id="Layer_2"><g data-name="Layer 3" id="Layer_3"><rect class="cls-1" height="24" width="24"/><path class="cls-2" d="M1,12C1,4,4,1,12,1S23,4,23,12,20,23,12,23,1,20,1,12"/><path class="cls-3" d="M17.54,4.56H6.46A1.06,1.06,0,0,0,5.4,5.64V18.36a1.06,1.06,0,0,0,1.06,1.08H17.54a1.06,1.06,0,0,0,1.06-1.08V5.64A1.06,1.06,0,0,0,17.54,4.56ZM8.94,6.24a.48.48,0,0,1,0-1,.48.48,0,0,1,0,1Zm6.12,0a.48.48,0,0,1,0-1,.48.48,0,1,1,0,1Z"/><path class="cls-4" d="M4.85,18.23l.49-5.3H18.66l.49,5.3a1.07,1.07,0,0,1-1.06,1.18H5.91A1.07,1.07,0,0,1,4.85,18.23Z"/><path class="cls-5" d="M4.57,7.93l.77,5H18.66l.77-5a1.07,1.07,0,0,0-1.06-1.24H5.63A1.07,1.07,0,0,0,4.57,7.93Z"/><path class="cls-2" d="M11.68,16H7.93v-.38L10,13.34a5.45,5.45,0,0,0,.71-1,1.61,1.61,0,0,0,.2-.74,1.22,1.22,0,0,0-.33-.9,1.26,1.26,0,0,0-.92-.33,1.3,1.3,0,0,0-1,.39,1.36,1.36,0,0,0-.37,1H7.8A1.9,1.9,0,0,1,8,10.86a1.57,1.57,0,0,1,.65-.65,1.9,1.9,0,0,1,1-.24,1.77,1.77,0,0,1,1.28.43,1.54,1.54,0,0,1,.47,1.18,2.08,2.08,0,0,1-.26.92,7.26,7.26,0,0,1-.92,1.24L8.54,15.63h3.14Z"/><path class="cls-2" d="M13.69,12.78h.51a1.76,1.76,0,0,0,.75-.15,1.14,1.14,0,0,0,.48-.41,1.13,1.13,0,0,0,.17-.6,1.19,1.19,0,0,0-.33-.9,1.26,1.26,0,0,0-.93-.33,1.33,1.33,0,0,0-.95.34,1.18,1.18,0,0,0-.37.89h-.49a1.58,1.58,0,0,1,.24-.85,1.55,1.55,0,0,1,.65-.59,2,2,0,0,1,.92-.21,1.81,1.81,0,0,1,1.28.44,1.63,1.63,0,0,1,.47,1.22,1.31,1.31,0,0,1-.27.8,1.7,1.7,0,0,1-.76.54,1.57,1.57,0,0,1,.85.54,1.48,1.48,0,0,1,.29.91,1.65,1.65,0,0,1-.5,1.24,1.9,1.9,0,0,1-1.34.46,2.24,2.24,0,0,1-1-.21,1.64,1.64,0,0,1-.7-.6,1.62,1.62,0,0,1-.24-.89h.49a1.22,1.22,0,0,0,.4.93,1.49,1.49,0,0,0,1,.36,1.41,1.41,0,0,0,1-.33,1.21,1.21,0,0,0,.36-1,1.1,1.1,0,0,0-.39-.91,1.73,1.73,0,0,0-1.13-.32h-.5Z"/></g></g></svg>